<?xml version="1.0" standalone="no"?>
<!DOCTYPE svg PUBLIC "-//W3C//DTD SVG 20010904//EN"
 "http://www.w3.org/TR/2001/REC-SVG-20010904/DTD/svg10.dtd">
<svg version="1.0" xmlns="http://www.w3.org/2000/svg"
 width="1440.000000pt" height="1440.000000pt" viewBox="0 0 1440.000000 1440.000000"
 preserveAspectRatio="xMidYMid meet">

<g transform="translate(0.000000,1440.000000) scale(0.100000,-0.100000)"
fill="#000000" stroke="none">
<path d="M7010 11763 c-992 -31 -1839 -243 -2220 -553 -155 -127 -228 -230
-364 -510 -162 -337 -310 -711 -454 -1150 -72 -218 -257 -828 -280 -920 -6
-27 -14 -36 -34 -38 -24 -3 -25 0 -31 59 -15 168 -172 334 -362 384 -75 19
-221 19 -303 0 -150 -36 -283 -140 -352 -276 -53 -107 -66 -175 -51 -264 30
-181 145 -293 366 -357 74 -21 98 -23 332 -23 163 0 253 -4 252 -10 0 -5 -35
-35 -77 -65 -41 -30 -137 -116 -212 -190 -201 -199 -331 -382 -465 -655 -133
-271 -207 -498 -264 -810 -41 -225 -46 -294 -46 -600 0 -310 11 -446 55 -706
50 -303 143 -632 216 -770 16 -31 18 -67 20 -364 3 -435 28 -659 113 -1010 44
-179 75 -273 131 -390 72 -150 132 -206 265 -248 65 -21 89 -22 345 -22 459 1
632 31 728 126 96 94 172 340 238 765 l4 31 93 -18 c445 -85 1206 -168 1832
-199 1016 -51 2135 9 3019 160 97 16 183 30 190 30 9 0 15 -21 19 -67 13 -156
80 -429 139 -572 40 -96 110 -170 183 -194 165 -55 671 -85 875 -52 181 30
262 89 343 251 67 134 94 210 137 377 76 301 109 569 117 952 l5 260 43 81
c144 269 240 630 302 1134 14 113 18 219 17 485 0 303 -2 356 -22 485 -51 326
-150 645 -281 904 -173 341 -351 566 -630 797 l-114 94 274 6 c300 7 330 12
467 75 96 44 180 128 213 211 35 90 33 225 -5 316 -60 143 -162 244 -303 300
-67 26 -95 31 -193 35 -98 4 -129 1 -195 -17 -103 -29 -172 -69 -234 -136 -52
-58 -121 -182 -121 -220 0 -12 -3 -37 -6 -54 -5 -26 -11 -31 -35 -31 -25 0
-30 5 -39 43 -62 235 -142 515 -201 703 -39 126 -74 238 -77 249 -9 35 -173
486 -213 588 -55 137 -196 452 -264 588 -157 313 -332 491 -620 629 -323 155
-826 280 -1368 339 -153 17 -728 45 -792 39 -11 -1 -58 -3 -105 -5z m652 -113
c718 -46 1431 -229 1760 -451 174 -117 248 -213 402 -519 285 -565 526 -1258
741 -2126 58 -236 111 -441 118 -456 6 -14 75 -75 152 -136 546 -427 857
-1020 945 -1798 14 -123 11 -174 -24 -419 -66 -470 -193 -887 -379 -1245 -162
-314 -312 -505 -542 -695 -206 -170 -443 -285 -820 -398 -240 -73 -910 -217
-1005 -217 -17 0 -29 -4 -25 -9 3 -6 -9 -7 -30 -4 -23 4 -35 2 -35 -6 0 -6
-14 -11 -32 -10 -18 0 -73 -6 -123 -14 -125 -21 -478 -49 -850 -68 -505 -25
-1873 6 -1910 44 -7 7 -4 8 8 4 9 -4 17 -2 17 4 0 5 -15 9 -33 7 -18 -1 -38 1
-44 5 -6 4 -87 14 -179 22 -233 21 -695 84 -894 121 -241 45 -570 115 -680
145 -69 19 -108 32 -313 105 -96 35 -267 112 -295 135 -14 10 -29 19 -35 19
-24 0 -269 175 -349 250 -191 177 -393 480 -484 727 -13 37 -28 75 -31 83 -3
8 -5 21 -4 27 1 7 -3 13 -9 13 -5 0 -9 3 -8 8 3 9 -22 83 -32 97 -29 40 -79
362 -100 645 -48 652 94 1283 405 1800 75 124 173 256 187 252 5 -1 7 1 4 6
-8 13 54 83 66 76 6 -4 8 -2 4 4 -12 19 170 192 329 312 55 41 105 82 112 90
16 19 27 57 117 410 42 162 84 324 95 360 11 36 42 142 69 236 203 688 500
1443 712 1804 74 125 209 260 333 331 196 113 378 183 667 258 330 85 681 141
1060 170 151 12 789 12 962 1z m-4336 -2740 c144 -71 214 -207 200 -390 -8
-91 -31 -199 -52 -241 -12 -23 -23 -28 -96 -40 -112 -18 -306 -16 -385 4 -195
51 -310 165 -321 320 -8 109 41 205 150 291 133 104 355 129 504 56z m8079 19
c155 -47 273 -174 290 -309 9 -80 -22 -173 -80 -238 -49 -55 -146 -110 -240
-138 -96 -28 -346 -22 -467 12 -10 3 -25 32 -40 77 -19 61 -23 93 -23 208 l0
136 40 79 c30 59 52 87 88 114 112 85 275 107 432 59z m-5468 -5805 c-3 -3
-12 -4 -19 -1 -8 3 -5 6 6 6 11 1 17 -2 13 -5z"/>
<path d="M6895 11349 c-712 -33 -1457 -200 -1925 -430 -289 -142 -333 -190
-470 -524 -120 -290 -180 -468 -314 -930 -168 -579 -252 -996 -226 -1121 14
-64 63 -141 107 -167 99 -57 671 -95 1179 -78 366 13 924 38 1024 46 202 17
558 26 955 26 458 0 593 -5 1205 -40 845 -49 1465 -60 1655 -28 216 35 265 58
315 147 22 39 25 56 24 135 -2 104 -30 278 -83 513 -151 661 -383 1377 -563
1736 -51 102 -152 183 -355 285 -629 315 -1570 475 -2528 430z m1112 -320 c85
-11 298 -60 378 -85 28 -9 109 -38 180 -64 380 -140 675 -293 1080 -561 l210
-139 87 -273 c157 -489 257 -857 334 -1232 54 -263 60 -349 28 -392 -32 -43
-99 -71 -214 -90 -91 -16 -177 -18 -665 -18 -308 0 -569 4 -580 9 -18 7 -14
11 28 32 85 44 50 79 -78 78 -62 -1 -102 -8 -180 -33 -55 -18 -106 -38 -112
-43 -14 -11 -563 21 -563 33 0 21 366 100 570 123 412 47 775 45 1313 -5 88
-8 122 -8 130 0 20 20 -13 39 -125 70 -469 131 -893 162 -1328 96 -213 -33
-603 -124 -935 -218 l-190 -54 -375 -7 c-206 -4 -431 -11 -500 -16 -69 -5
-237 -14 -375 -19 -137 -6 -290 -13 -340 -17 -61 -4 -87 -2 -80 5 14 14 260
84 395 112 99 21 142 24 305 23 105 0 225 -6 268 -12 43 -7 179 -12 303 -12
191 0 224 2 224 15 0 21 -43 40 -157 72 l-98 27 -365 0 c-362 1 -479 -6 -700
-40 -250 -39 -471 -88 -725 -161 l-160 -45 -270 7 c-148 4 -336 13 -417 20
-136 11 -150 15 -184 40 -76 58 -85 95 -59 263 55 365 200 911 382 1437 l59
169 135 94 c262 181 627 341 984 431 235 59 594 101 859 101 152 0 343 -28
548 -80 210 -54 204 -54 211 18 2 32 15 78 27 101 55 108 202 199 380 236 81
16 253 18 357 4z m1136 -2516 c-18 -2 -48 -2 -65 0 -18 2 -4 4 32 4 36 0 50
-2 33 -4z m-3090 -150 c-7 -2 -19 -2 -25 0 -7 3 -2 5 12 5 14 0 19 -2 13 -5z"/>
<path d="M6301 9785 c-87 -25 -151 -65 -231 -145 -99 -99 -155 -212 -180 -362
-52 -323 123 -643 399 -728 86 -27 217 -27 304 0 246 76 423 364 404 657 -17
253 -169 479 -378 564 -71 29 -239 36 -318 14z m-44 -237 c75 -70 39 -209 -58
-224 -71 -10 -138 67 -125 145 15 97 117 141 183 79z"/>
<path d="M7890 9777 c-178 -60 -312 -211 -377 -422 -14 -46 -18 -91 -17 -195
0 -119 4 -145 27 -216 64 -194 222 -355 391 -400 83 -22 219 -18 297 10 237
84 391 321 392 606 1 126 -17 201 -73 317 -71 145 -200 261 -338 303 -90 28
-216 27 -302 -3z m-54 -213 c95 -45 83 -206 -17 -235 -33 -10 -45 -10 -74 4
-85 40 -89 187 -7 231 35 20 56 20 98 0z"/>
<path d="M10015 7913 c-67 -119 -138 -231 -219 -348 -126 -181 -364 -441 -521
-570 -85 -70 -135 -105 -270 -193 -11 -7 -78 -41 -150 -77 -249 -122 -542
-198 -930 -239 -207 -23 -1215 -24 -1445 -2 -266 25 -477 66 -695 136 -432
138 -815 443 -1161 925 -55 77 -189 295 -231 378 -32 62 -62 107 -71 107 -4 0
-13 -4 -21 -9 -12 -8 -9 -19 14 -68 37 -74 196 -343 243 -408 45 -63 112 -153
134 -180 117 -143 192 -226 279 -309 425 -405 857 -578 1583 -636 206 -16
1141 -13 1326 5 337 32 530 71 779 156 323 110 649 332 904 614 227 252 381
467 525 736 40 73 49 98 40 107 -7 7 -17 12 -24 12 -6 0 -46 -62 -89 -137z"/>
<path d="M10270 7109 c-89 -15 -214 -63 -295 -114 -106 -66 -185 -142 -253
-244 -195 -293 -199 -638 -10 -928 337 -517 1081 -504 1401 25 48 78 92 193
107 278 16 89 8 288 -14 369 -116 416 -521 682 -936 614z m365 -93 c118 -40
208 -98 306 -195 72 -72 94 -102 133 -181 63 -129 86 -226 86 -359 0 -143 -19
-226 -81 -351 -45 -90 -64 -116 -143 -195 -100 -100 -189 -154 -321 -194 -130
-40 -314 -38 -442 5 -262 87 -458 308 -514 579 -74 358 119 726 457 868 101
43 186 57 319 53 98 -3 135 -8 200 -30z"/>
<path d="M3921 7099 c-259 -51 -483 -223 -601 -464 -62 -126 -83 -233 -77
-390 5 -155 25 -235 87 -353 74 -142 168 -245 303 -333 181 -117 438 -153 657
-92 277 77 519 332 586 619 21 93 21 269 -1 364 -37 158 -121 308 -232 417
-167 163 -362 244 -578 242 -55 -1 -120 -5 -144 -10z m320 -78 c286 -73 487
-278 567 -576 22 -84 21 -269 -2 -360 -36 -139 -122 -282 -227 -378 -164 -150
-386 -224 -593 -198 -180 22 -331 95 -457 220 -235 235 -292 588 -143 884 47
94 82 142 151 208 105 102 229 171 361 204 86 20 254 19 343 -4z"/>
<path d="M3336 5269 c-81 -13 -187 -72 -244 -134 -71 -77 -96 -146 -97 -260 0
-82 3 -96 33 -157 92 -187 302 -286 497 -234 79 21 123 45 185 102 146 136
172 347 61 508 -61 88 -173 158 -282 176 -72 11 -83 11 -153 -1z"/>
<path d="M10790 5269 c-116 -20 -240 -100 -293 -192 -133 -227 -16 -507 244
-588 200 -62 422 35 510 223 30 66 34 82 34 164 0 84 -2 95 -38 166 -25 51
-53 91 -85 119 -55 49 -152 96 -214 104 -88 12 -104 12 -158 4z"/>
<path d="M6992 5219 c-491 -34 -933 -164 -1232 -364 -287 -191 -473 -447 -457
-625 11 -127 90 -165 262 -126 502 114 742 154 1145 193 230 22 914 25 1135 5
227 -21 506 -59 720 -97 397 -72 420 -75 465 -52 30 14 70 89 70 129 0 98
-100 270 -242 418 -262 274 -696 455 -1223 509 -148 15 -491 21 -643 10z m701
-645 l47 -6 0 -89 0 -88 -294 6 c-258 5 -711 -8 -782 -22 -26 -6 -30 8 -40
112 l-7 70 159 12 c88 6 175 13 194 15 49 6 665 -3 723 -10z m285 -35 c151
-23 332 -61 405 -85 43 -14 47 -18 47 -49 0 -44 -11 -96 -19 -91 -15 10 -490
66 -553 66 l-38 0 0 83 c0 75 4 97 17 97 3 0 66 -9 141 -21z m-1428 -85 c7
-47 11 -87 9 -88 -2 -2 -68 -11 -146 -20 -78 -9 -213 -30 -300 -46 -216 -40
-199 -43 -206 37 -4 37 -3 70 1 74 16 14 204 61 356 88 210 39 206 38 242 40
l31 1 13 -86z m2063 -87 c98 -46 212 -115 204 -123 -4 -5 -308 55 -316 62 -4
4 10 104 15 104 2 0 46 -19 97 -43z m-2785 -87 l-3 -35 -160 -37 c-164 -37
-225 -45 -225 -29 0 24 108 89 259 156 l116 52 8 -36 c4 -20 7 -52 5 -71z"/>
<path d="M12113 7173 c-21 -8 -15 -24 33 -85 97 -123 152 -289 162 -488 7
-116 8 -125 27 -125 19 0 20 8 23 104 5 195 -52 380 -165 530 -38 51 -63 70
-80 64z"/>
<path d="M11935 7030 c-4 -6 0 -21 9 -33 93 -127 140 -242 152 -371 7 -83 21
-113 48 -103 14 6 16 16 11 69 -16 153 -78 321 -150 406 -36 42 -58 52 -70 32z"/>
</g>
</svg>
